<svg id="logo_svg" data-name="Layer 1" xmlns="http://www.w3.org/2000/svg" viewBox="0 0 123.54 43.63">
                                <defs>
                                    <style>
                                        .cls-1 {
                                            fill: #fff;
                                        }

                                        .cls-2 {
                                            fill: #f78f21;
                                            fill-rule: evenodd;
                                        }
                                    </style>
                                </defs>
                                <title>logoso</title>
                                <path class="cls-1" d="M51.76,18.93a6.24,6.24,0,0,0-1,2.66c-.13.94-.22,1.87-.27,2.8A12.61,12.61,0,0,0,51.8,21.8a4.06,4.06,0,0,0,0-2.87m-15.45.28L37.56,18c.36.05.72.08,1.08.11a3.5,3.5,0,0,1,1.09.24,1.51,1.51,0,0,1,.66.49c.18.24.35.47.5.7l.28.5.27.54A12.17,12.17,0,0,1,42,22c.28.86.56,1.76.82,2.69s.31,1.56.46,2.31.29,1.52.39,2.31a7.92,7.92,0,0,1,0,1.54c0,.51-.08,1-.08,1.54a8.71,8.71,0,0,0,0,.87c0,.31,0,.62,0,.95l-.23.91a.21.21,0,0,1,.15.07,26.51,26.51,0,0,0,2.87-4.09,34.17,34.17,0,0,1,2.8-4.17,13.9,13.9,0,0,1-.39-3.29,10.33,10.33,0,0,1,.62-3.43,4.82,4.82,0,0,1,.39-1c.15-.31.31-.62.46-.95a1.28,1.28,0,0,1,1.4-.7,1.5,1.5,0,0,1,1.32,1,3.49,3.49,0,0,1,0,1.44c-.1.44-.21.92-.31,1.43a5.08,5.08,0,0,1-.62,1.79,17,17,0,0,0-.85,1.64,1.66,1.66,0,0,1-.31.49,1.82,1.82,0,0,0,.15,2.52c.1.19.39.28.85.28A4.25,4.25,0,0,0,53.16,28a2.94,2.94,0,0,0,1.4-.8,15.65,15.65,0,0,0,1.32-1.47,13.69,13.69,0,0,0,.81-1.17c-.11.51-.22,1-.34,1.54-.18.25-.38.5-.59.75a7.08,7.08,0,0,1-1.94,1.57,3.55,3.55,0,0,1-2.52.35,1.18,1.18,0,0,1-.66-.35c-.18-.19-.38-.37-.59-.56s-.15-.06-.15,0a2.15,2.15,0,0,1-.16-.32q-1.55,2.94-2.91,5.25a47.6,47.6,0,0,1-3.22,4.76,1,1,0,0,1-.54.45,1.85,1.85,0,0,1-.78.18c-.52,0-.8-.28-.85-.84-.21-.79-.4-1.59-.58-2.38s-.41-1.59-.66-2.38-.52-1.56-.78-2.31-.52-1.52-.78-2.31l-1.08-3.85c-.16-.51-.33-1-.51-1.43a8.33,8.33,0,0,1-.42-1.37,1.83,1.83,0,0,1,0-.7c0-.23,0-.46,0-.7a1.72,1.72,0,0,1-.08-.63.21.21,0,0,1-.12,0S36.37,19.21,36.31,19.21Z"></path>
                                <path class="cls-1" d="M61.7,24.52h.6c.45-.11.91-.24,1.36-.38A6,6,0,0,0,65,23.5c.57-.4,1.15-.78,1.74-1.15s1.2-.78,1.83-1.23a1.32,1.32,0,0,0,.47-1,1.46,1.46,0,0,0-.22-1,1.59,1.59,0,0,0-2.21-.68,7,7,0,0,0-2.46,1.87,3.62,3.62,0,0,1-.47.38,1.9,1.9,0,0,0-.47.47,8.67,8.67,0,0,1-.59,1.27,2.5,2.5,0,0,1-.94.94Zm10.46,4.59a3.73,3.73,0,0,1,1.14-1.49,3.38,3.38,0,0,1,1.66-1,1.44,1.44,0,0,1,.38-.73,9.39,9.39,0,0,1,.81-.85,6.44,6.44,0,0,1,.94-.68c.34-.19.59-.27.76-.21a5.13,5.13,0,0,1-1.15,1.74,18,18,0,0,1-1.57,1.41,2.13,2.13,0,0,0-.34.51A4.09,4.09,0,0,1,73.64,29a1.85,1.85,0,0,1-1.23.51,1.88,1.88,0,0,0-.13.38.63.63,0,0,1-.21.38c-.68.51-1.34,1-2,1.53a13.5,13.5,0,0,1-2.17,1.36,14.48,14.48,0,0,1-3.19,1.15,7.08,7.08,0,0,1-3.36-.05,14.75,14.75,0,0,1-1.65-.42,6.53,6.53,0,0,1-1.49-.68A6.51,6.51,0,0,1,57,32a3.9,3.9,0,0,1-.73-1.66q-.07-.68-.21-1.32a3.65,3.65,0,0,1,0-1.23c.28-1.36.58-2.72.89-4.08a10.59,10.59,0,0,1,1.66-3.74,4.19,4.19,0,0,1,.81-.76l.89-.68.25-.26a4.18,4.18,0,0,1,1.92-1.66c.76-.31,1.54-.6,2.33-.89q.51-.16,1-.3a1.15,1.15,0,0,1,1,.3h.34a1.58,1.58,0,0,1,1.53.09,8.4,8.4,0,0,1,1.19,1,2.52,2.52,0,0,1,.85,2.8A13.91,13.91,0,0,1,70,21.08a7.27,7.27,0,0,1-1,1.32,9.76,9.76,0,0,1-2.72,1.91c-1,.48-2.1.92-3.23,1.32a.17.17,0,0,0-.13,0,.17.17,0,0,1-.13,0,4,4,0,0,0-1.61.51,4,4,0,0,0-.51,1.62c-.06.28-.11.53-.17.76a3,3,0,0,0-.09.77,3.27,3.27,0,0,0,1,2.38,2.87,2.87,0,0,0,2.47.85c.62-.06,1.23-.13,1.83-.22a6.62,6.62,0,0,0,1.82-.55,10.58,10.58,0,0,0,1.83-1.06c.6-.43,1.2-.84,1.83-1.23a.72.72,0,0,1,.42-.22A2.41,2.41,0,0,0,72.16,29.11Z"></path>
                                <path class="cls-1" d="M76.85,19.34a4.17,4.17,0,0,1,.56.28,3,3,0,0,0,.57.28.58.58,0,0,0,.37,0,.67.67,0,0,0,.31-.1q.32-.75.6-1.5a2,2,0,0,0-.16-1.62.58.58,0,0,0-.62-.44,1.66,1.66,0,0,0-1.5.78,1.78,1.78,0,0,0-.13,1.72.37.37,0,0,1,0,.25,1.35,1.35,0,0,0,0,.31m5.81,2.19a5.59,5.59,0,0,1,2.65,1.65,3.63,3.63,0,0,1,.78,1.94,3.92,3.92,0,0,1-.28,1.81c-.23.56-.4,1-.53,1.22q-.5.81-.9,1.65c-.27.56-.58,1.14-.91,1.72a13.53,13.53,0,0,1-.69,1.31c-.25.42-.49.85-.74,1.31a1.42,1.42,0,0,0-.16.53,1.36,1.36,0,0,1-.16.53L81,37c-.13.13-.19.15-.19.06,0,.34-.07.64-.09.91a2.94,2.94,0,0,1-.16.72,5.92,5.92,0,0,0-.47,1.71c-.06.57-.16,1.14-.28,1.72l.12.13A5.25,5.25,0,0,1,80.6,42a1.33,1.33,0,0,0,.5-.28c.46-.46.87-.92,1.25-1.38s.75-.93,1.12-1.43A18.41,18.41,0,0,0,84.75,37c.4-.64.82-1.28,1.28-1.9a.64.64,0,0,1,.41-.34l.59-.22-.22-.13-.22-.12,1.75-2.62c.09-.17.18-.34.28-.5a5.62,5.62,0,0,1,.35-.5,6.82,6.82,0,0,0,.34-.66.64.64,0,0,1,.66-.34.14.14,0,0,0,.15-.1.53.53,0,0,1,.16-.21.88.88,0,0,0-.31-.07l.56-1.06.93-1.37c.05-.09.17-.13.38-.13a.89.89,0,0,1-.06-.37c.29-.34.61-.74,1-1.22s.69-.95,1-1.4l.62-.88a6.36,6.36,0,0,0,.39.72,6.8,6.8,0,0,0-.88,1.25A9.8,9.8,0,0,1,93,26.15a10.58,10.58,0,0,0-.78,1.15,8.41,8.41,0,0,1-.78,1.16c-.2.29-.38.57-.53.84a4.3,4.3,0,0,1-.53.78L90.15,30l-.06.12c.29.25.35.45.19.6a2.28,2.28,0,0,0-.38.4l-2.31,3.68-.93,1.32c-.3.41-.59.85-.88,1.31s-.64.92-.93,1.4-.61,1-.94,1.41c-.17.21-.33.42-.5.65a7,7,0,0,1-.56.66.15.15,0,0,1-.16,0,.16.16,0,0,0-.16,0l-.28.44c-.1.16-.21.33-.34.5a4.25,4.25,0,0,1-1.06.78,3.4,3.4,0,0,1-1.25.34,1.34,1.34,0,0,1-1-.37,4.47,4.47,0,0,1-1-2,8.39,8.39,0,0,1-.16-2.19,22.21,22.21,0,0,1,.38-3.18,3.7,3.7,0,0,1,.19-.66c.08-.23.16-.44.25-.65a1.13,1.13,0,0,0,.12-.47,1.35,1.35,0,0,1,.06-.41l.25-1c.09-.29.16-.56.22-.81s.14-.5.22-.75l.63-1,.24-.62c.09-.21.17-.42.25-.62H81a.25.25,0,0,0,.07-.19l-.63-.38c0-.12,0-.18.13-.18a1,1,0,0,0,.59-.63c.06-.25.11-.54.16-.87s.11-.3.21-.28a2.74,2.74,0,0,0,.47,0c.42-.25.51-.49.28-.72a3,3,0,0,0-1.12-.62,14.09,14.09,0,0,0-1.69-.5L78,24.21a1.52,1.52,0,0,1-.47-.15.55.55,0,0,1-.16-.47c0-.09-.07-.18-.21-.28L76.79,23v.31a2.8,2.8,0,0,1-1.62-1.09,5.59,5.59,0,0,1-.91-1.94A8.06,8.06,0,0,1,74,18.06,6,6,0,0,1,74.42,16a3.56,3.56,0,0,1,.75-1.31,5.47,5.47,0,0,1,1.25-.88,1.89,1.89,0,0,1,1.81-.06,15.29,15.29,0,0,0,1.62.81l-.19.44.07.06c.33,0,.52.05.56.25a2.38,2.38,0,0,0,.18.57,3.09,3.09,0,0,1,.19.56c0,.16,0,.33-.25.5s-.14.21-.06.25a1.66,1.66,0,0,1,0,1.5A10.88,10.88,0,0,0,79.79,20a2.42,2.42,0,0,0-.13.31.41.41,0,0,0,0,.31.25.25,0,0,0,.25.13.68.68,0,0,1,.31.06A14.73,14.73,0,0,1,82.66,21.53Z"></path>
                                <path class="cls-1" d="M96.4,30.39a.61.61,0,0,0-.13.35.39.39,0,0,1-.12.28c-.25.33-.49.66-.72,1a3.75,3.75,0,0,0-.53,1.18,2,2,0,0,1-.13.69c-.12.58-.25,1.19-.37,1.81a5.36,5.36,0,0,0-.06,1.87,2.82,2.82,0,0,0,1.06,1.78,2,2,0,0,0,1.75.53c.41-.08.83-.15,1.24-.21a1.58,1.58,0,0,0,1.07-.85,1.59,1.59,0,0,0,.18.44h.07V39a5.38,5.38,0,0,1,.62-.75,1.78,1.78,0,0,0,.44-.75,6.37,6.37,0,0,0,.47-1.25c.1-.42.19-.85.28-1.31a5.75,5.75,0,0,0,.15-1,2.92,2.92,0,0,0-.09-.94c-.17-.45-.31-.9-.44-1.34a2.86,2.86,0,0,0-.62-1.15c-.29-.38-.56-.76-.81-1.16a8.17,8.17,0,0,0-.82-1.09s0-.06-.15-.06-.16,0-.16.06L97.33,29.4a2.43,2.43,0,0,0-.43.59.74.74,0,0,1-.5.4M93,36.2c0-.12-.08-.24-.12-.34a.83.83,0,0,1-.06-.28q.06-.37.12-.72a2.94,2.94,0,0,1,.19-.66,5.92,5.92,0,0,1,.31-1,6,6,0,0,1,.5-1,27.78,27.78,0,0,1,1.93-2.62c.3-.33.6-.65.91-1l1-1c.33-.25.31-.57-.06-.94-.21-.21-.4-.42-.57-.62a1.61,1.61,0,0,0-.68-.5.21.21,0,0,1-.19-.1,1.52,1.52,0,0,0-.19-.22l-.59-.71a7.4,7.4,0,0,1-.53-.72,4.57,4.57,0,0,1-.72-1.47,7.9,7.9,0,0,1-.28-1.65A4.38,4.38,0,0,1,94.59,18a5.75,5.75,0,0,1,1.12-1.44,5,5,0,0,1,.66-.31l.71-.25v.44c.25.17.37.33.35.5a1.22,1.22,0,0,1-.28.56,6.08,6.08,0,0,0-.47.66,1.29,1.29,0,0,0-.22.72c0,.41-.06.84-.06,1.28a1.86,1.86,0,0,0,.37,1.15L99,24.09l.62,1.06c.13.33.36.39.69.19l4.56-2.75,0,0,0,0v.79a4.17,4.17,0,0,1-.6.28,2.65,2.65,0,0,0-.72.41,1.45,1.45,0,0,0-.35.31,1.26,1.26,0,0,1-.4.31L101,25.9a.57.57,0,0,0-.19.87,25.74,25.74,0,0,1,1.25,2.31,13.2,13.2,0,0,1,.87,2.5,6.89,6.89,0,0,1,.19,1.62v1.69a1.87,1.87,0,0,1-.09.59l-.22.6q-.06.56-.63.18a5.46,5.46,0,0,0-.09,1,1,1,0,0,0,.22.41l-.63.31a.27.27,0,0,0,.07.16.29.29,0,0,1,.06.15,13.06,13.06,0,0,1-1,1.16,5.5,5.5,0,0,1-1.22.9,2.91,2.91,0,0,1-.69.19,1.45,1.45,0,0,0-.62.25l-.53.31a1,1,0,0,1-.53.13,4.47,4.47,0,0,1-2.66-.59,3.08,3.08,0,0,1-1.46-2.35L92.9,37v-.12c-.25-.21-.32-.36-.22-.44A2.35,2.35,0,0,0,93,36.2Z"></path>
                                <path class="cls-1" d="M118.16,14c0,.1,0,.21.07.31a.94.94,0,0,1-.07-.31"></path>
                                <path class="cls-1" d="M118.33,15.4l0,0s0,.08,0,.13l-.06-.1M117,24.25a.88.88,0,0,0-.47.6,5.9,5.9,0,0,1-.5,1c-.2.31-.41.64-.65,1a4.77,4.77,0,0,1-.79,1.23,2.22,2.22,0,0,1-.58.5l-.14.15a4.35,4.35,0,0,1-3.53,2.16,3,3,0,0,1-.94,0,5.55,5.55,0,0,1-.87-.22,3.48,3.48,0,0,1-1.47-.83,4.8,4.8,0,0,1-.9-1.26,3,3,0,0,0-.54-.64,1.67,1.67,0,0,1-.47-.8,4.61,4.61,0,0,0-.22-.83c-.09-.26-.19-.51-.28-.75a1,1,0,0,0,.32-.79,6,6,0,0,0-.11-.8V22.61c.1-.24.18-.45.25-.64l.26-.65.64-1.44a8,8,0,0,1,.51-.72,4.32,4.32,0,0,0,.5-.8,1.14,1.14,0,0,1,1-.43.83.83,0,0,0,.87-1,8.37,8.37,0,0,1-.15-1.58,4.69,4.69,0,0,1,.29-1.59,6,6,0,0,1,1-1.87,6.3,6.3,0,0,1,1.58-1.37l.65-.21.36-.29A2.94,2.94,0,0,1,115,10a1.56,1.56,0,0,0-.49,1,1.09,1.09,0,0,0,0,.18,5.13,5.13,0,0,0-.51-.1,4.27,4.27,0,0,0-1.91.47,3.69,3.69,0,0,0-1.26,1.33,5.77,5.77,0,0,0-.69,1.4,5.64,5.64,0,0,0-.18,1.55,6,6,0,0,1,.11.76,3.24,3.24,0,0,0,.18.76,4.28,4.28,0,0,1,.22.75l-.36.8-1.22,4.63c0,.05-.05.1-.08.16v.14a6.4,6.4,0,0,0-.18,1.08c0,.34-.06.67-.11,1a3,3,0,0,1-.07.68,1.61,1.61,0,0,0,0,.69,1.86,1.86,0,0,0,1.33,1.62,2.71,2.71,0,0,0,2.06-.33,4.59,4.59,0,0,0,.79-.5,8.45,8.45,0,0,0,.72-.65c.48-.53.91-1,1.3-1.55a5.3,5.3,0,0,0,.52-.83l1-1.93q.26-.16.18-.3s0,0,0-.07h0a2.93,2.93,0,0,1,.2-.57,2.68,2.68,0,0,0,.22-.57L117,20c.1-.58.19-1.14.29-1.69s.17-1.09.21-1.65l.61,0v0q.28.09.27.06a.11.11,0,0,1,0,0v.9a4.7,4.7,0,0,1-.07.82c-.05.39-.08.77-.11,1.16a2.39,2.39,0,0,1-.39,1.15.78.78,0,0,0-.11.54,1.06,1.06,0,0,1-.11.61,2.9,2.9,0,0,0-.19.83Z"></path>
                                <path class="cls-1" d="M116,10.4a3.65,3.65,0,0,0,.27,2.23,13.67,13.67,0,0,0,1,1.74,8.82,8.82,0,0,0,0-2.4A1.92,1.92,0,0,0,116,10.4m1.39,6.2a6.47,6.47,0,0,1-1.82-1.55,5,5,0,0,1-1-2.34,3,3,0,0,1-.12-.84c0-.28,0-.57,0-.86a1.75,1.75,0,0,1,.92-1.38c.7-.44,1.24-.56,1.63-.36a1.55,1.55,0,0,1,.65.79c.1.32.23.66.37,1a3,3,0,0,1,.25,1.43,13,13,0,0,0,0,1.53,1.2,1.2,0,0,1-.06.49c-.12,1,.3,1.39,1.27,1.29.18,0,.47-.12.88-.46a6.62,6.62,0,0,0,1-.91,4,4,0,0,0,.87-1.44,12.18,12.18,0,0,0,.51-1.76A11.77,11.77,0,0,0,123,9.59c0-.52.07-.9.1-1.14,0,0,.13,0,.26,0s.21.05.23.08a9.71,9.71,0,0,0-.11,1.4,8.88,8.88,0,0,1-.31,2.06,8.42,8.42,0,0,1-1,2.26,6.15,6.15,0,0,1-2.06,2,1.79,1.79,0,0,1-.74.28c-.24,0-.5.06-.76.1s-.17.08-.16.09-.08,0-.27-.06v0Z"></path>
                                <path class="cls-1" d="M37.54,24.07,37,25c-.66.83-1.3,1.67-1.92,2.5S33.81,29.17,33.21,30a11.15,11.15,0,0,0-.94,1.48A11.15,11.15,0,0,1,31.33,33a8.33,8.33,0,0,1-1,1,8.33,8.33,0,0,0-1,1,.55.55,0,0,0-.18.4.32.32,0,0,1-.18.31,5.37,5.37,0,0,1-.85.58,6.27,6.27,0,0,0-.85.59,1.3,1.3,0,0,1-1.21.22l-1-.49A2.66,2.66,0,0,1,24,35.11a2.44,2.44,0,0,1-.09-1.71.37.37,0,0,0,.09-.27l-.54-2.41.89.18v-.27a1.08,1.08,0,0,1-.62-1.44,5.78,5.78,0,0,0,.18-1.43,5.84,5.84,0,0,1,.18-1.43,18.17,18.17,0,0,0,.49-2.73,16.6,16.6,0,0,1,.49-2.73,2.32,2.32,0,0,1,.22-.36.61.61,0,0,0,.14-.36l.18-1.43a16.4,16.4,0,0,0,.76-2,4.82,4.82,0,0,1,1-1.83.8.8,0,0,1,1.34,0,.5.5,0,0,0,.32.18c.09,0,.16.06.22.18l.4.58a.78.78,0,0,1,.14.67,13,13,0,0,1-.54,3.76,36.4,36.4,0,0,0-.9,3.67,52.59,52.59,0,0,1-1.07,6c-.12.66-.25,1.3-.4,1.93s-.29,1.27-.41,1.92a2.63,2.63,0,0,0,.27,1.35h.36a63.42,63.42,0,0,0,6.63-7.53,19.68,19.68,0,0,1,1.56-1.88c.57-.59,1.12-1.22,1.66-1.88a.78.78,0,0,1,.36-.22l.06,0,.15.49"></path>
                                <path class="cls-2" d="M29.33,9.06s0-.06,0-.09l0,0,0,0,0,0c-.05-.09-.21-.33-.25-.41l0,0,0-.07-.05-.09-.34-.67a4.84,4.84,0,0,1-.25-.73,2.33,2.33,0,0,1,.07-1.31,1.27,1.27,0,0,1,.2-.34A.49.49,0,0,1,28.84,5a.64.64,0,0,1,.43.06,2.16,2.16,0,0,1,.63.44l.13.13a3,3,0,0,1,.42.59.75.75,0,0,0,.09.15.24.24,0,0,0,.08.06s.06,0,.09,0L31,6.19l0,0A1.18,1.18,0,0,1,31.19,6l.16-.09a2.11,2.11,0,0,1,1.24-.28,1.15,1.15,0,0,1,.55.21A.85.85,0,0,1,33.3,6a.55.55,0,0,1,.07.4,2.66,2.66,0,0,1-.55,1.1,4.62,4.62,0,0,1-.59.72c-.14.14-.26.24-.4.37a3.11,3.11,0,0,1-.28.23l0,0L31.41,9c-.08.07-.35.27-.43.32l-.27.18-.15.09-.27.16-.05,0h0L30,9.89a1.55,1.55,0,0,1-.21-.23,6,6,0,0,1-.45-.6m-.65.68-.09-.14a.3.3,0,0,0-.05-.07l0-.07-.05-.08c-.08-.14-.35-.52-.41-.65s0,0,0,0L28,8.58c0-.06-.06-.1-.09-.15l-.54-1.08a8,8,0,0,1-.41-1.19A3.87,3.87,0,0,1,27,4.05a2.05,2.05,0,0,1,.33-.54.78.78,0,0,1,.53-.27,1.08,1.08,0,0,1,.7.11,3.6,3.6,0,0,1,1,.71l.2.21a4.57,4.57,0,0,1,.68,1,1.2,1.2,0,0,0,.15.24.3.3,0,0,0,.13.09c.06,0,.1,0,.14,0l.43-.4.06,0a1.94,1.94,0,0,1,.29-.21l.26-.15a3.33,3.33,0,0,1,2-.45,1.77,1.77,0,0,1,.89.34,1.31,1.31,0,0,1,.26.27.89.89,0,0,1,.11.64,4.32,4.32,0,0,1-.88,1.78,8,8,0,0,1-1,1.17c-.22.22-.41.39-.64.6s-.34.3-.46.38l0,0L32,9.61c-.13.11-.57.42-.7.51l-.42.28a2.13,2.13,0,0,1-.25.16l-.44.26-.07,0h0l-.42.23a2,2,0,0,1-.33-.37A5.69,5.69,0,0,1,28.68,9.74Z"></path>
                                <path class="cls-1" d="M23.06,22.68a1,1,0,0,0,0-.5.46.46,0,0,1,.1-.4,3.27,3.27,0,0,1,.46-1c.11-.19.23-.23.41-.08s.21.16.21.39l-1,1.74-.07,0c-.09,0-.14-.06-.14-.12m-13.8-.13-.82-.87a3,3,0,0,0-1.37-.94c-.31,0-.67.21-1.07.74a7.17,7.17,0,0,0-.84,1.31,7,7,0,0,1-.83,1.3,6,6,0,0,0-1,2.38,11.89,11.89,0,0,0-.18,2.82,1.86,1.86,0,0,0,.32,1.05.69.69,0,0,0,.72.37l.91-.09a1.37,1.37,0,0,0,.78-.3c.49-.34,1-.71,1.45-1.09a7.11,7.11,0,0,0,1.3-1.37,2.83,2.83,0,0,0,.5-1.12,9.38,9.38,0,0,0,.22-1.36A4.32,4.32,0,0,0,9.42,24C9.37,23.56,9.32,23.07,9.26,22.55Zm8.08-10a1.29,1.29,0,0,0,0,.19.63.63,0,0,1,0,.43c-.22.36-.44.69-.64,1a4.28,4.28,0,0,0-.56,1.11l-2.1,7.6a1.36,1.36,0,0,1-.14.27.58.58,0,0,0-.06.28,1.06,1.06,0,0,1-.27.45q-.19.21.21.48c.05.06,0,.2-.06.41a.11.11,0,0,1-.07.11s-.07.09-.07.2c-.17.81-.32,1.63-.44,2.46s-.26,1.64-.38,2.47a12,12,0,0,0-.15,1.75,2.82,2.82,0,0,1-.43,1.53,1.28,1.28,0,0,0-.32,1.16A3.56,3.56,0,0,1,12,35.59l-.23,1.81c-.5,3.94,1.06,4.58,3,1.51a13.2,13.2,0,0,0,.85-1.52L21.66,24.5c.12-.26.27-.49.4-.72a5.36,5.36,0,0,1,.47-.7.61.61,0,0,1,.27-.2.76.76,0,0,0,.26-.2,1.09,1.09,0,0,1,0,1.11c-.2.24-.37.46-.5.65a2.72,2.72,0,0,0-.3.62,3.66,3.66,0,0,1-.23.63c-.57,1.19-4.71,10.34-5.26,11.5-1,2-3.37,6.09-5.71,5.39a1.12,1.12,0,0,1-.75-.72L9.91,41a6.72,6.72,0,0,1-.32-.84,3,3,0,0,1-.14-.84,2.77,2.77,0,0,0-.15-.84l-.15-1.23c-.05-.4-.12-.82-.21-1.24a.5.5,0,0,0,0-.22.25.25,0,0,1,0-.13,2.75,2.75,0,0,0-.06-1.55,3.81,3.81,0,0,1-.12-1.64,1.87,1.87,0,0,1,.17-.31,3.07,3.07,0,0,1,.24-.29A3.65,3.65,0,0,1,8.92,31,5,5,0,0,0,8.74,30c-.5.41-1,.82-1.45,1.26s-1,.85-1.44,1.26a2.85,2.85,0,0,1-3.46.08A.43.43,0,0,1,2,32.28c-.37-.71-.75-1.4-1.14-2.09a5.92,5.92,0,0,1-.74-2.25,11.4,11.4,0,0,1,.09-4.32A16.86,16.86,0,0,1,1,21.11a10.74,10.74,0,0,1,1.2-2.17A3.81,3.81,0,0,1,6.7,17.46a2.33,2.33,0,0,1,1.4,1,9.34,9.34,0,0,1,1,1.88c.1.19.19.4.28.62a2.43,2.43,0,0,0,.42.64c.08-.49.17-1,.25-1.47s.17-1,.26-1.4c.3-1.46,1.41-5.48,1.89-6.9.27-.8,1.4-4.86,1.68-5.65s.57-1.59.89-2.36a16.36,16.36,0,0,1,.8-1.57c.27-.48.57-.93.87-1.38A1.89,1.89,0,0,1,17.85,0a1.62,1.62,0,0,1,1.5.41A3.37,3.37,0,0,1,20,1.62,7.88,7.88,0,0,1,20.29,6a17.67,17.67,0,0,1-.69,2c-.24.63-.52,1.24-.76,1.88A6.09,6.09,0,0,1,18.35,11c-.2.33-.42.69-.64,1.1l-.2.08-.1-.17c.14-.34.25-.67.36-1a12.78,12.78,0,0,1,.46-1.26,4.18,4.18,0,0,1,.5-.87A2.13,2.13,0,0,0,19.16,8c.19-1,.28-2,.38-3a4.37,4.37,0,0,0,0-1c-.05-.35-.09-.71-.14-1.06a.2.2,0,0,1-.11-.06.13.13,0,0,0-.1-.07q-.33.87-.69,1.68A6.29,6.29,0,0,0,18,6.19a6.23,6.23,0,0,1-.46,1.65,4.55,4.55,0,0,0-.39,1.74,5.66,5.66,0,0,1-.28,1.77,13.79,13.79,0,0,0-.49,1.73l.13,0,.76-.8Z"></path>
                            </svg>